<?xml version="1.0" standalone="no"?>
<!DOCTYPE svg PUBLIC "-//W3C//DTD SVG 20010904//EN"
 "http://www.w3.org/TR/2001/REC-SVG-20010904/DTD/svg10.dtd">
<svg version="1.0" xmlns="http://www.w3.org/2000/svg"
 width="155.000000pt" height="155.000000pt" viewBox="0 0 155.000000 155.000000"
 preserveAspectRatio="xMidYMid meet">
<metadata>
Created by potrace 1.11, written by Peter Selinger 2001-2013
</metadata>
<g transform="translate(0.000000,155.000000) scale(0.100000,-0.100000)"
fill="#000000" stroke="none">
<path d="M694 1316 c-17 -7 -59 -14 -93 -15 -66 -1 -110 -18 -147 -58 -13 -14
-38 -33 -56 -43 -18 -9 -43 -32 -56 -50 -28 -42 -24 -105 9 -152 24 -33 24
-33 24 -368 l1 -335 23 -27 c13 -15 37 -30 54 -34 16 -3 157 -6 314 -6 278 0
285 1 317 23 37 25 36 21 42 114 l5 71 57 2 c70 3 127 33 163 87 25 36 27 48
27 136 1 64 -4 103 -14 120 -7 13 -17 32 -20 42 -3 9 -10 17 -16 17 -5 0 -22
9 -37 21 -20 14 -50 23 -95 26 l-66 6 0 39 c0 27 8 50 26 74 34 45 35 112 2
160 -24 35 -97 77 -126 72 -10 -1 -33 5 -53 15 -20 9 -45 18 -56 20 -10 1 -34
13 -53 27 -41 29 -129 38 -176 16z"/>
</g>
</svg>
